<svg xmlns="http://www.w3.org/2000/svg" width="21" height="24" viewBox="0 0 21 24"><g><g><g><path fill="#fff" d="M10.307 23.888c.398-.04.775-.2 1.078-.46l8.139-6.977a1.937 1.937 0 1 0-2.52-2.943l-6.879 5.898-6.88-5.898a1.94 1.94 0 0 0-2.78.17 1.937 1.937 0 0 0 .26 2.774l8.14 6.976c.399.342.92.507 1.442.46z"/></g><g><path fill="#fff" d="M10.307 10.888c.398-.04.775-.2 1.078-.46l8.139-6.977a1.937 1.937 0 1 0-2.52-2.943l-6.879 5.898L3.245.508a1.94 1.94 0 0 0-2.78.17 1.937 1.937 0 0 0 .26 2.774l8.14 6.976c.399.342.92.507 1.442.46z"/></g></g></g></svg>