<svg xmlns="http://www.w3.org/2000/svg" width="16" height="44" viewBox="0 0 16 44"><g><g><path fill="#fff" d="M0 20.579C0 7.498 5.422.44 7.639.44c2.217 0 7.639 7.057 7.639 20.139 0 13.217-4.743 22.177-4.945 22.552l-.196.364H5.141l-.197-.364C4.744 42.756 0 33.796 0 20.579zM6.945 2.284zm0 0C5.365 3.695 2.204 8.414 1.52 17.13h.002c-.005.217-.085 5.354 6.462 9.095 2.692 1.539 4.17 3.096 4.974 4.24.546-2.908.93-6.238.93-9.887 0-10.936-3.778-16.708-5.555-18.295V24.05h-1.39zm1.052 30.894c1.821 1.085 2.852 2.36 3.437 3.396a52.626 52.626 0 0 0 1.087-4.023c-.02-.064-.78-2.577-5.226-5.118-3.128-1.788-4.89-3.894-5.883-5.74.02.86.054 1.704.113 2.527.121.955.987 5.692 6.472 8.958zm.336 8.929h.96c.276-.57.835-1.789 1.47-3.542-.135-.578-.784-2.59-3.478-4.195-2.45-1.46-4.061-3.197-5.125-4.826 1.137 6.662 3.2 11.275 3.824 12.563h.96v-4.862h1.39z"/><path fill="none" stroke="#000" stroke-miterlimit="20" stroke-width=".25" d="M0 20.579C0 7.498 5.422.44 7.639.44c2.217 0 7.639 7.057 7.639 20.139 0 13.217-4.743 22.177-4.945 22.552l-.196.364H5.141l-.197-.364C4.744 42.756 0 33.796 0 20.579zM6.945 2.284h0v0zm0 0C5.365 3.695 2.204 8.414 1.52 17.13h.002c-.005.217-.085 5.354 6.462 9.095 2.692 1.539 4.17 3.096 4.974 4.24.546-2.908.93-6.238.93-9.887 0-10.936-3.778-16.708-5.555-18.295V24.05h-1.39zm1.052 30.894c1.821 1.085 2.852 2.36 3.437 3.396a52.626 52.626 0 0 0 1.087-4.023h0c-.02-.064-.78-2.577-5.226-5.118-3.128-1.788-4.89-3.894-5.883-5.74.02.86.054 1.704.113 2.527.121.955.987 5.692 6.472 8.958zm.336 8.929h.96c.276-.57.835-1.789 1.47-3.542-.135-.578-.784-2.59-3.478-4.195-2.45-1.46-4.061-3.197-5.125-4.826 1.137 6.662 3.2 11.275 3.824 12.563h.96v-4.862h1.39z"/></g></g></svg>