<svg xmlns="http://www.w3.org/2000/svg" width="56" height="47" viewBox="0 0 56 47"><g><g><path fill="#fff" d="M54.602 42.866a.512.512 0 0 1-.036.083.171.171 0 0 1-.055.073c-.011.018-.022.033-.033.048a1.6 1.6 0 0 1-.078.097 1.338 1.338 0 0 1-.134.12 2.511 2.511 0 0 1-.091.057l-.015.008c-.016.009-.032.018-.05.026a.368.368 0 0 1-.029.013l-.033.013-.027.01a.335.335 0 0 0-.035.015.158.158 0 0 1-.021.006l-.013.001h-.001l-.012.001a.893.893 0 0 1-.226.031.405.405 0 0 0-.143.017c-.043.05-.122.304-.172.464l-.005.015c-.183.594-.566 1.828-2.116 1.828-1.326 0-1.984-.889-2.466-1.538l-.004-.005c-.451-.615-.623-.78-.961-.78-.339 0-.508.165-.962.778l-.004.004c-.481.65-1.14 1.538-2.468 1.538-1.326 0-1.984-.888-2.466-1.538l-.003-.004c-.452-.613-.623-.779-.962-.779-.336 0-.508.166-.962.781-.48.65-1.14 1.543-2.47 1.543-1.327 0-1.986-.889-2.468-1.538l-.003-.005c-.452-.612-.623-.778-.962-.778-.338 0-.508.166-.962.778-.48.65-1.138 1.543-2.47 1.543-1.325 0-1.983-.889-2.465-1.538l-.003-.005c-.452-.612-.624-.778-.962-.778-.337 0-.508.166-.962.78-.48.65-1.14 1.543-2.47 1.543-1.325 0-1.984-.888-2.465-1.538l-.004-.005c-.451-.612-.623-.778-.962-.778-.336 0-.508.166-.962.78-.48.651-1.14 1.544-2.469 1.544a1.4 1.4 0 0 1-1.075-.487c-.656-.755-.524-2.041-.254-4.077l.005-.035c.097-.737.244-1.86.195-2.407-1.756.346-4.25 3.899-5.543 6.484a.937.937 0 0 1-.84.522c-.018 0-.037 0-.056-.003a.937.937 0 0 1-.828-.621c-.216-.604-2.064-5.974-.143-8.945.72-1.111 1.886-1.75 3.377-1.847 1.296-.085 1.889-.437 2.001-.714.076-.185-.044-.501-.308-.802-.7-.805-2.267-1.45-4.05-.962-2.471.675-5.242 4.019-6.175 7.455-.327 1.208-.68 3.444.656 4.827a.957.957 0 0 1-.019 1.344.934.934 0 0 1-1.33-.02C1.097 43.985.7 41.62 1.45 38.858c.971-3.578 4.043-7.843 7.5-8.785 2.575-.703 4.844.265 5.955 1.54.769.88.999 1.894.634 2.781-.317.772-1.201 1.726-3.619 1.885-.9.06-1.528.384-1.921.99-.793 1.224-.61 3.395-.25 5.128 1.412-2.286 3.888-5.606 6.451-5.525.414.014.788.195 1.052.51.263.314.392.72.44 1.222 1.73-1.155 4.256-2.3 9.242-2.807C21.53 13.7 31.689 1.263 32.15.715a.12.12 0 0 1 .012-.01l.014-.014a.96.96 0 0 1 .087-.083.388.388 0 0 1 .059-.05c.029-.02.058-.036.088-.053l.02-.011a.47.47 0 0 1 .059-.033.92.92 0 0 1 .136-.045c.011-.002.022-.006.033-.01a.9.9 0 0 1 .214-.027l.139.006c.277 0 .538.12.717.334.461.546 10.571 12.92 5.263 34.909 13.88.82 15.578 6.41 15.644 6.654l.004.03.015.093c.004.034.009.067.009.1a.08.08 0 0 0 0 .007l.001.007a.095.095 0 0 1 .001.015v.018l-.004.03v.01c-.003.032-.005.066-.012.098a.818.818 0 0 1-.004.022l-.004.018-.011.046-.005.016-.003.012c-.006.021-.012.042-.02.062zm-20.79-4.315h2.432c5.355-17.673.317-29.587-2.432-34.317zM31.931 4.483c-2.77 4.9-7.545 16.739-2.293 34.068h2.293zM51.608 43.41c.11-.356.298-.94.761-1.35-1.041-1.33-4.327-4.058-13.863-4.554a62.88 62.88 0 0 1-.675 2.287.942.942 0 0 1-.896.662h-7.99a.942.942 0 0 1-.897-.662 70.603 70.603 0 0 1-.628-2.13c-6.046.574-8.21 2.104-9.863 3.395l-.022.167c-.01.087-.022.175-.035.268-.091.693-.232 1.76-.204 2.33.172-.102.346-.31.628-.695l.003-.005c.482-.65 1.14-1.538 2.468-1.538 1.326 0 1.985.888 2.466 1.538l.004.005c.451.612.623.778.962.778.338 0 .508-.166.962-.778l.003-.005c.482-.65 1.14-1.538 2.468-1.538 1.326 0 1.984.888 2.466 1.538l.004.005c.453.612.625.778.961.778.34 0 .508-.166.962-.778.48-.65 1.139-1.543 2.47-1.543 1.325 0 1.984.888 2.466 1.538l.003.005c.454.614.626.78.964.78.339 0 .508-.166.962-.778l.003-.004c.482-.65 1.14-1.538 2.469-1.538 1.325 0 1.984.888 2.466 1.538l.003.004c.452.612.623.779.962.779.339 0 .51-.167.964-.781.48-.65 1.14-1.543 2.47-1.543 1.328 0 1.986.888 2.468 1.538l.003.005c.454.612.626.778.962.778a.406.406 0 0 0 .144-.016c.043-.051.121-.304.171-.464z"/><path fill="none" stroke="#222532" stroke-miterlimit="20" d="M54.602 42.866a.512.512 0 0 1-.036.083h0a.171.171 0 0 1-.055.073c-.011.018-.022.033-.033.048a1.6 1.6 0 0 1-.078.097 1.338 1.338 0 0 1-.134.12 2.511 2.511 0 0 1-.091.057l-.015.008c-.016.009-.032.018-.05.026a.368.368 0 0 1-.029.013l-.033.013-.027.01a.335.335 0 0 0-.035.015.158.158 0 0 1-.021.006l-.013.001h-.001l-.012.001a.893.893 0 0 1-.226.031.405.405 0 0 0-.143.017c-.043.05-.122.304-.172.464l-.005.015c-.183.594-.566 1.828-2.116 1.828-1.326 0-1.984-.889-2.466-1.538l-.004-.005c-.451-.615-.623-.78-.961-.78-.339 0-.508.165-.962.778l-.004.004c-.481.65-1.14 1.538-2.468 1.538-1.326 0-1.984-.888-2.466-1.538l-.003-.004c-.452-.613-.623-.779-.962-.779-.336 0-.508.166-.962.781-.48.65-1.14 1.543-2.47 1.543-1.327 0-1.986-.889-2.468-1.538l-.003-.005c-.452-.612-.623-.778-.962-.778-.338 0-.508.166-.962.778-.48.65-1.138 1.543-2.47 1.543-1.325 0-1.983-.889-2.465-1.538l-.003-.005c-.452-.612-.624-.778-.962-.778-.337 0-.508.166-.962.78-.48.65-1.14 1.543-2.47 1.543-1.325 0-1.984-.888-2.465-1.538l-.004-.005c-.451-.612-.623-.778-.962-.778-.336 0-.508.166-.962.78-.48.651-1.14 1.544-2.469 1.544a1.4 1.4 0 0 1-1.075-.487c-.656-.755-.524-2.041-.254-4.077l.005-.035c.097-.737.244-1.86.195-2.407-1.756.346-4.25 3.899-5.543 6.484a.937.937 0 0 1-.84.522c-.018 0-.037 0-.056-.003a.937.937 0 0 1-.828-.621c-.216-.604-2.064-5.974-.143-8.945.72-1.111 1.886-1.75 3.377-1.847 1.296-.085 1.889-.437 2.001-.714.076-.185-.044-.501-.308-.802-.7-.805-2.267-1.45-4.05-.962-2.471.675-5.242 4.019-6.175 7.455-.327 1.208-.68 3.444.656 4.827a.957.957 0 0 1-.019 1.344.934.934 0 0 1-1.33-.02C1.097 43.985.7 41.62 1.45 38.858c.971-3.578 4.043-7.843 7.5-8.785 2.575-.703 4.844.265 5.955 1.54.769.88.999 1.894.634 2.781-.317.772-1.201 1.726-3.619 1.885-.9.06-1.528.384-1.921.99-.793 1.224-.61 3.395-.25 5.128 1.412-2.286 3.888-5.606 6.451-5.525.414.014.788.195 1.052.51.263.314.392.72.44 1.222 1.73-1.155 4.256-2.3 9.242-2.807C21.53 13.7 31.689 1.263 32.15.715a.12.12 0 0 1 .012-.01l.014-.014a.96.96 0 0 1 .087-.083.388.388 0 0 1 .059-.05c.029-.02.058-.036.088-.053l.02-.011a.47.47 0 0 1 .059-.033.92.92 0 0 1 .136-.045c.011-.002.022-.006.033-.01h0a.9.9 0 0 1 .214-.027l.139.006c.277 0 .538.12.717.334.461.546 10.571 12.92 5.263 34.909 13.88.82 15.578 6.41 15.644 6.654l.004.03.015.093c.004.034.009.067.009.1a.08.08 0 0 0 0 .007l.001.007a.095.095 0 0 1 .001.015v.018l-.004.03v.01c-.003.032-.005.066-.012.098a.818.818 0 0 1-.004.022l-.004.018-.011.046-.005.016-.003.012c-.006.021-.012.042-.02.062zm-20.79-4.315h2.432c5.355-17.673.317-29.587-2.432-34.317zM31.931 4.483c-2.77 4.9-7.545 16.739-2.293 34.068h2.293zM51.608 43.41h0c.11-.356.298-.94.761-1.35-1.041-1.33-4.327-4.058-13.863-4.554a62.88 62.88 0 0 1-.675 2.287.942.942 0 0 1-.896.662h-7.99a.942.942 0 0 1-.897-.662 70.603 70.603 0 0 1-.628-2.13c-6.046.574-8.21 2.104-9.863 3.395l-.022.167c-.01.087-.022.175-.035.268-.091.693-.232 1.76-.204 2.33.172-.102.346-.31.628-.695l.003-.005c.482-.65 1.14-1.538 2.468-1.538 1.326 0 1.985.888 2.466 1.538l.004.005c.451.612.623.778.962.778.338 0 .508-.166.962-.778l.003-.005c.482-.65 1.14-1.538 2.468-1.538 1.326 0 1.984.888 2.466 1.538l.004.005c.453.612.625.778.961.778.34 0 .508-.166.962-.778.48-.65 1.139-1.543 2.47-1.543 1.325 0 1.984.888 2.466 1.538l.003.005c.454.614.626.78.964.78.339 0 .508-.166.962-.778l.003-.004c.482-.65 1.14-1.538 2.469-1.538 1.325 0 1.984.888 2.466 1.538l.003.004c.452.612.623.779.962.779.339 0 .51-.167.964-.781.48-.65 1.14-1.543 2.47-1.543 1.328 0 1.986.888 2.468 1.538l.003.005c.454.612.626.778.962.778a.406.406 0 0 0 .144-.016c.043-.051.121-.304.171-.464z"/></g></g></svg>