<svg xmlns="http://www.w3.org/2000/svg" width="39" height="33" viewBox="0 0 39 33"><g><g><path fill="#fff" d="M38.042 24.407a.482.482 0 0 1 .48.487l-.019 4.16c0 .212-.139.4-.34.462a.477.477 0 0 1-.538-.191l-2.81-4.177v3.905a.484.484 0 0 1-.481.486H23.289a4.366 4.366 0 0 1-4.053 3.088c-.01 0-.019.001-.028.003l-.01.001a.134.134 0 0 1-.028 0H19.142l-.019.002a4.368 4.368 0 0 1-4.167-3.094H4.232a.484.484 0 0 1-.482-.486v-3.905L.94 29.324a.485.485 0 0 1-.541.192.486.486 0 0 1-.339-.466l.017-4.342a.484.484 0 0 1 .481-.483H.56c.266 0 .482.22.48.487l-.011 2.75L18.883.92c.18-.267.619-.267.797 0l17.868 26.562.01-2.592a.484.484 0 0 1 .482-.483zm-18.806 7.25a1.532 1.532 0 0 0 1.475-1.528c0-.552-.805-1.822-1.531-2.78-.726.958-1.531 2.228-1.531 2.78 0 .838.677 1.52 1.512 1.531l.07-.003zm2.436-1.53c0 .144-.02.28-.042.417.551-.607.89-1.409.886-2.29 0-1.454-2.19-4.548-3.396-6.088-1.206 1.54-3.397 4.636-3.397 6.088 0 .955.397 1.82 1.03 2.44a2.573 2.573 0 0 1-.07-.567c0-1.229 1.77-3.437 2.124-3.868a.496.496 0 0 1 .741 0c.356.43 2.124 2.64 2.124 3.868zm-2.178-9.041c.408.495 3.989 4.908 3.987 7.168 0 .106-.007.21-.015.315h5.204v-3.2c-.628-.512-2.71-2.287-4.818-4.92-1.712-2.137-3.666-5.155-4.552-8.6-.886 3.443-2.84 6.463-4.551 8.6-2.109 2.633-4.19 4.408-4.819 4.92v3.2h4.849l-.006-.089a3.52 3.52 0 0 1-.01-.226c0-2.26 3.582-6.673 3.99-7.168a.496.496 0 0 1 .74 0zm10.137 7.483h4.22l.003-4.852-14.57-21.659-14.571 21.66v4.85h4.252v-3.435c0-.151.07-.293.188-.384.117-.092 9.664-7.635 9.664-16.562 0-.267.216-.485.481-.485s.482.218.482.485c0 8.924 9.54 16.464 9.663 16.561a.49.49 0 0 1 .188.385z"/><path fill="none" d="M38.042 24.407a.482.482 0 0 1 .48.487l-.019 4.16c0 .212-.139.4-.34.462a.477.477 0 0 1-.538-.191l-2.81-4.177v3.905a.484.484 0 0 1-.481.486H23.289a4.366 4.366 0 0 1-4.053 3.088c-.01 0-.019.001-.028.003l-.01.001a.134.134 0 0 1-.028 0H19.142l-.019.002a4.368 4.368 0 0 1-4.167-3.094H4.232a.484.484 0 0 1-.482-.486v-3.905L.94 29.324a.485.485 0 0 1-.541.192.486.486 0 0 1-.339-.466l.017-4.342a.484.484 0 0 1 .481-.483H.56c.266 0 .482.22.48.487l-.011 2.75L18.883.92c.18-.267.619-.267.797 0l17.868 26.562.01-2.592a.484.484 0 0 1 .482-.483zm-18.806 7.25a1.532 1.532 0 0 0 1.475-1.528c0-.552-.805-1.822-1.531-2.78-.726.958-1.531 2.228-1.531 2.78 0 .838.677 1.52 1.512 1.531l.07-.003zm2.436-1.53c0 .144-.02.28-.042.417.551-.607.89-1.409.886-2.29 0-1.454-2.19-4.548-3.396-6.088-1.206 1.54-3.397 4.636-3.397 6.088 0 .955.397 1.82 1.03 2.44a2.573 2.573 0 0 1-.07-.567c0-1.229 1.77-3.437 2.124-3.868a.496.496 0 0 1 .741 0c.356.43 2.124 2.64 2.124 3.868zm-2.178-9.041c.408.495 3.989 4.908 3.987 7.168 0 .106-.007.21-.015.315h5.204v-3.2c-.628-.512-2.71-2.287-4.818-4.92-1.712-2.137-3.666-5.155-4.552-8.6-.886 3.443-2.84 6.463-4.551 8.6-2.109 2.633-4.19 4.408-4.819 4.92v3.2h4.849l-.006-.089a3.52 3.52 0 0 1-.01-.226c0-2.26 3.582-6.673 3.99-7.168a.496.496 0 0 1 .74 0zm10.137 7.483h4.22l.003-4.852-14.57-21.659-14.571 21.66v4.85h4.252v-3.435c0-.151.07-.293.188-.384.117-.092 9.664-7.635 9.664-16.562 0-.267.216-.485.481-.485s.482.218.482.485c0 8.924 9.54 16.464 9.663 16.561a.49.49 0 0 1 .188.385z"/></g></g></svg>