<svg xmlns="http://www.w3.org/2000/svg" width="24" height="24" viewBox="0 0 24 24"><g><g><path fill="#fff" d="M20.098 23.33l-4.716-4.716c-.335-.335-.94-.42-1.362-.194 0 0 .058-.014-.31.152a9.669 9.669 0 0 1-3.996.857A9.713 9.713 0 0 1 0 9.714 9.713 9.713 0 0 1 9.714 0a9.713 9.713 0 0 1 9.715 9.714 9.68 9.68 0 0 1-.862 4.007c-.165.364-.15.301-.15.301-.225.416-.138 1.025.197 1.36l4.716 4.716a2.285 2.285 0 1 1-3.232 3.232zM9.714 4.286a5.429 5.429 0 1 0 .001 10.858 5.429 5.429 0 0 0 0-10.858z"/></g></g></svg>