<svg xmlns="http://www.w3.org/2000/svg" width="44" height="45" viewBox="0 0 44 45"><defs><mask id="i0kjb" width="2" height="2" x="-1" y="-1"><path fill="#fff" d="M11 11h22v22H11z"/><path d="M21.954 11l3.196 7.59 7.85.864-5.934 5.476L28.801 33l-6.846-4.227L15.198 33l1.735-8.07L11 19.454l7.85-.864z"/></mask><filter id="i0kja" width="74" height="74" x="-15" y="-15" filterUnits="userSpaceOnUse"><feOffset in="SourceGraphic" result="FeOffset1063Out"/><feGaussianBlur in="FeOffset1063Out" result="FeGaussianBlur1064Out" stdDeviation="6.4 6.4"/></filter></defs><g><g><g filter="url(#i0kja)"><path fill="none" d="M21.954 11l3.196 7.59 7.85.864-5.934 5.476L28.801 33l-6.846-4.227L15.198 33l1.735-8.07L11 19.454l7.85-.864z" mask="url(&quot;#i0kjb&quot;)"/><path fill="#4af6cd" fill-opacity=".54" d="M21.954 11l3.196 7.59 7.85.864-5.934 5.476L28.801 33l-6.846-4.227L15.198 33l1.735-8.07L11 19.454l7.85-.864z"/></g><path fill="#4af6cd" d="M21.954 11l3.196 7.59 7.85.864-5.934 5.476L28.801 33l-6.846-4.227L15.198 33l1.735-8.07L11 19.454l7.85-.864z"/></g></g></svg>